<svg width="52" height="52" viewBox="0 0 52 52" fill="none" xmlns="http://www.w3.org/2000/svg">
<path d="M35.7136 48.4679C33.7293 47.7036 32.1583 46.9168 30.6844 46.3417C28.1 45.3359 25.812 44.9798 22.1023 46.5359C21.2434 46.8944 20.3097 47.3575 19.2765 47.9376C16.9013 49.2746 14.5535 50.7859 11.8944 51.3834C9.23295 51.981 6.10834 51.4506 4.43026 49.2995C1.53727 45.5898 4.26596 40.232 4.29335 36.1712C4.33814 29.2772 -3.07625 21.1732 1.48241 14.7348C5.67263 8.81921 14.9195 11.9512 20.7753 8.7644C25.2841 6.3145 27.988 0.406407 33.1044 0.0179817C36.6248 -0.248408 39.8092 2.48283 41.2656 5.69955C44.1861 12.1504 41.7188 20.1574 45.4359 26.292C46.9322 28.7643 49.3199 30.6266 50.6668 33.1836C55.5865 42.52 44.353 51.7967 35.7136 48.4679Z" fill="url(#paint0_linear_3_294)"/>
<path d="M19.7056 16.5C19.6745 16.4997 19.6438 16.5072 19.6163 16.5217C19.5888 16.5362 19.5653 16.5574 19.548 16.5832C19.5307 16.6091 19.5201 16.6388 19.5172 16.6698C19.5143 16.7008 19.5191 16.732 19.5312 16.7606L19.639 17.0151L21.5468 21.4636C21.5598 21.4938 21.5805 21.5202 21.6069 21.5399C21.6332 21.5596 21.6643 21.572 21.697 21.5759C21.7297 21.5798 21.7628 21.575 21.7931 21.5621C21.8233 21.5491 21.8496 21.5284 21.8693 21.502L25.3906 16.8C25.4115 16.7721 25.4242 16.739 25.4273 16.7043C25.4305 16.6697 25.4239 16.6348 25.4083 16.6036C25.3927 16.5725 25.3688 16.5463 25.3392 16.528C25.3096 16.5097 25.2754 16.5 25.2406 16.5H19.7056ZM33.6842 17.7216L31.7492 22.2389C31.737 22.2674 31.7321 22.2985 31.7349 22.3294C31.7377 22.3603 31.7481 22.39 31.7652 22.4158C31.7823 22.4417 31.8055 22.4629 31.8328 22.4776C31.8602 22.4923 31.8907 22.5 31.9217 22.5H36.6561C36.6895 22.5 36.7223 22.4911 36.7511 22.4741C36.78 22.4572 36.8037 22.4329 36.82 22.4037C36.8362 22.3745 36.8444 22.3414 36.8436 22.308C36.8428 22.2746 36.8331 22.242 36.8154 22.2136L34.0156 17.6967C33.9975 17.6676 33.9718 17.6441 33.9413 17.6286C33.9107 17.6131 33.8765 17.6062 33.8424 17.6088C33.8082 17.6113 33.7754 17.6232 33.7475 17.6431C33.7197 17.663 33.6977 17.6901 33.6842 17.7216ZM17.9843 17.6986L15.1854 22.2136C15.1678 22.242 15.1581 22.2746 15.1573 22.308C15.1565 22.3414 15.1646 22.3745 15.1809 22.4037C15.1971 22.4329 15.2209 22.4572 15.2497 22.4741C15.2786 22.4911 15.3114 22.5 15.3448 22.5H20.0792C20.1102 22.5 20.1408 22.4922 20.1681 22.4775C20.1954 22.4627 20.2186 22.4414 20.2356 22.4155C20.2527 22.3896 20.263 22.3599 20.2657 22.3289C20.2685 22.298 20.2635 22.2669 20.2512 22.2384L18.3125 17.7234C18.2986 17.6928 18.2767 17.6664 18.2492 17.6471C18.2216 17.6278 18.1893 17.6162 18.1558 17.6137C18.1222 17.6112 18.0886 17.6177 18.0584 17.6326C18.0283 17.6476 18.0027 17.6704 17.9843 17.6986ZM32.4345 16.5H26.554C26.5371 16.4999 26.5204 16.5045 26.5059 16.5134C26.4915 16.5223 26.4798 16.535 26.4722 16.5502C26.4646 16.5653 26.4613 16.5823 26.4629 16.5992C26.4644 16.6161 26.4707 16.6322 26.4809 16.6458L30.2272 21.6361C30.2367 21.6489 30.2495 21.659 30.2642 21.6653C30.2789 21.6716 30.295 21.6739 30.3109 21.672C30.3267 21.6701 30.3418 21.664 30.3546 21.6545C30.3674 21.6449 30.3775 21.6321 30.3837 21.6173L32.3562 17.0156L32.5156 16.6247C32.5212 16.6113 32.5235 16.5967 32.5222 16.5822C32.521 16.5677 32.5162 16.5537 32.5084 16.5415C32.5006 16.5292 32.4899 16.519 32.4773 16.5118C32.4646 16.5046 32.4504 16.5005 32.4359 16.5H32.4345ZM25.2031 36L21.0111 24.1176C20.9988 24.0831 20.9761 24.0533 20.9461 24.0322C20.9161 24.0112 20.8804 23.9999 20.8437 24H15.2047C15.172 23.9999 15.14 24.009 15.1122 24.0262C15.0844 24.0434 15.0621 24.0681 15.0477 24.0974C15.0333 24.1267 15.0274 24.1595 15.0307 24.192C15.034 24.2245 15.0464 24.2554 15.0664 24.2812L25.1914 37.3973C25.2257 37.4417 25.2746 37.4725 25.3294 37.4843C25.3842 37.496 25.4414 37.488 25.4909 37.4616C25.5407 37.4354 25.5793 37.3922 25.5999 37.3399C25.6205 37.2876 25.6215 37.2296 25.6029 37.1766L25.2031 36ZM36.7953 24H31.1562C31.1198 24 31.0842 24.0113 31.0545 24.0324C31.0248 24.0535 31.0023 24.0833 30.9903 24.1176L26.3872 37.1564C26.3678 37.2111 26.3686 37.271 26.3894 37.3252C26.4102 37.3794 26.4496 37.4244 26.5006 37.4522C26.5516 37.4798 26.6107 37.4884 26.6675 37.4765C26.7242 37.4645 26.7749 37.4328 26.8104 37.387L36.9336 24.2812C36.9536 24.2554 36.966 24.2245 36.9693 24.192C36.9726 24.1595 36.9667 24.1267 36.9523 24.0974C36.9379 24.0681 36.9155 24.0434 36.8877 24.0262C36.86 24.009 36.828 23.9999 36.7953 24ZM26.15 18.6998L28.775 22.2C28.7959 22.2278 28.8086 22.261 28.8117 22.2957C28.8148 22.3303 28.8082 22.3652 28.7927 22.3963C28.7771 22.4275 28.7532 22.4537 28.7235 22.472C28.6939 22.4903 28.6598 22.5 28.625 22.5H23.375C23.3401 22.5 23.306 22.4903 23.2764 22.472C23.2468 22.4537 23.2228 22.4275 23.2073 22.3963C23.1917 22.3652 23.1851 22.3303 23.1882 22.2957C23.1914 22.261 23.2041 22.2278 23.225 22.2L25.85 18.6998C25.8674 18.6765 25.8901 18.6576 25.9161 18.6446C25.9422 18.6316 25.9709 18.6248 26 18.6248C26.0291 18.6248 26.0578 18.6316 26.0838 18.6446C26.1099 18.6576 26.1325 18.6765 26.15 18.6998ZM25.8218 33.2456L22.6484 24.2498C22.6384 24.2216 22.6354 24.1913 22.6395 24.1616C22.6437 24.132 22.6549 24.1037 22.6722 24.0792C22.6895 24.0547 22.7124 24.0348 22.739 24.021C22.7656 24.0072 22.7952 24 22.8251 24H29.1748C29.2048 24 29.2343 24.0072 29.2609 24.021C29.2875 24.0348 29.3105 24.0547 29.3278 24.0792C29.3451 24.1037 29.3563 24.132 29.3604 24.1616C29.3645 24.1913 29.3615 24.2216 29.3515 24.2498L26.1767 33.2456C26.1637 33.2821 26.1398 33.3137 26.1082 33.3361C26.0765 33.3584 26.0387 33.3705 26 33.3705C25.9612 33.3705 25.9234 33.3584 25.8918 33.3361C25.8601 33.3137 25.8362 33.2821 25.8233 33.2456H25.8218Z" fill="#F6F6F6"/>
<defs>
<linearGradient id="paint0_linear_3_294" x1="36.6693" y1="7.63595" x2="16.4565" y2="47.4713" gradientUnits="userSpaceOnUse">
<stop stop-color="#FF5E5E"/>
<stop offset="0.2512" stop-color="#FF4B4B"/>
<stop offset="0.7588" stop-color="#FF1A1A"/>
<stop offset="1" stop-color="#FF0000"/>
</linearGradient>
</defs>
</svg>
