<svg width="52" height="52" viewBox="0 0 52 52" fill="none" xmlns="http://www.w3.org/2000/svg">
<path d="M35.7136 48.4679C33.7293 47.7036 32.1583 46.9168 30.6844 46.3417C28.1 45.3359 25.812 44.9798 22.1023 46.5359C21.2434 46.8944 20.3097 47.3575 19.2765 47.9376C16.9013 49.2746 14.5535 50.7859 11.8944 51.3834C9.23295 51.981 6.10834 51.4506 4.43026 49.2995C1.53727 45.5898 4.26596 40.232 4.29335 36.1712C4.33814 29.2772 -3.07625 21.1732 1.48241 14.7348C5.67263 8.81921 14.9195 11.9512 20.7753 8.7644C25.2841 6.3145 27.988 0.406407 33.1044 0.0179817C36.6248 -0.248408 39.8092 2.48283 41.2656 5.69955C44.1861 12.1504 41.7188 20.1574 45.4359 26.292C46.9322 28.7643 49.3199 30.6266 50.6668 33.1836C55.5865 42.52 44.353 51.7967 35.7136 48.4679Z" fill="url(#paint0_linear_3_281)"/>
<path d="M25.0002 30.0002C25.5306 30.0002 26.0394 29.7894 26.4145 29.4143C26.7896 29.0392 27.0003 28.5305 27.0003 28C27.0003 27.4695 26.7896 26.9608 26.4145 26.5857C26.0394 26.2106 25.5306 25.9998 25.0002 25.9998C24.4697 25.9998 23.9609 26.2106 23.5858 26.5857C23.2107 26.9608 23 27.4695 23 28C23 28.5305 23.2107 29.0392 23.5858 29.4143C23.9609 29.7894 24.4697 30.0002 25.0002 30.0002Z" stroke="white" stroke-width="1.5" stroke-linecap="round" stroke-linejoin="round"/>
<path d="M34 28C34 28 31 34 25 34C19 34 16 28 16 28C16 28 19 22 25 22C31 22 34 28 34 28Z" stroke="white" stroke-width="1.5" stroke-linecap="round" stroke-linejoin="round"/>
<defs>
<linearGradient id="paint0_linear_3_281" x1="36.6693" y1="7.63595" x2="16.4565" y2="47.4713" gradientUnits="userSpaceOnUse">
<stop stop-color="#FF5E5E"/>
<stop offset="0.2512" stop-color="#FF4B4B"/>
<stop offset="0.7588" stop-color="#FF1A1A"/>
<stop offset="1" stop-color="#FF0000"/>
</linearGradient>
</defs>
</svg>
